<svg width="42" height="41" viewBox="0 0 42 41" fill="none" xmlns="http://www.w3.org/2000/svg">
<g id="ant-design:facebook-filled">
<path id="Vector" d="M36.2103 4.48291H6.75121C6.04275 4.48291 5.47038 5.05528 5.47038 5.76374V35.2229C5.47038 35.9313 6.04275 36.5037 6.75121 36.5037H36.2103C36.9188 36.5037 37.4912 35.9313 37.4912 35.2229V5.76374C37.4912 5.05528 36.9188 4.48291 36.2103 4.48291ZM32.5119 13.829H29.9543C27.949 13.829 27.5607 14.7816 27.5607 16.1825V19.2685H32.3478L31.7234 24.0996H27.5607V36.5037H22.5695V24.1036H18.3948V19.2685H22.5695V15.7062C22.5695 11.5715 25.0951 9.31805 28.7855 9.31805C30.5547 9.31805 32.0716 9.45013 32.5159 9.51017V13.829H32.5119Z" fill="#2091F9"/>
</g>
</svg>
