<svg width="42" height="41" viewBox="0 0 42 41" fill="none" xmlns="http://www.w3.org/2000/svg">
<g id="ant-design:linkedin-filled">
<path id="Vector" d="M36.1981 4.48291H6.73899C6.03053 4.48291 5.45816 5.05528 5.45816 5.76374V35.2229C5.45816 35.9313 6.03053 36.5037 6.73899 36.5037H36.1981C36.9066 36.5037 37.4789 35.9313 37.4789 35.2229V5.76374C37.4789 5.05528 36.9066 4.48291 36.1981 4.48291ZM14.9563 31.7686H10.2052V16.4867H14.9563V31.7686ZM12.5828 14.3973C12.0381 14.3973 11.5057 14.2358 11.0529 13.9332C10.6 13.6307 10.247 13.2006 10.0386 12.6974C9.83019 12.1942 9.77565 11.6405 9.88191 11.1063C9.98817 10.5721 10.2504 10.0815 10.6356 9.69634C11.0207 9.31121 11.5114 9.04894 12.0455 8.94268C12.5797 8.83643 13.1334 8.89096 13.6366 9.09939C14.1398 9.30782 14.5699 9.66078 14.8725 10.1136C15.1751 10.5665 15.3366 11.0989 15.3366 11.6436C15.3326 13.1645 14.0998 14.3973 12.5828 14.3973ZM32.7439 31.7686H27.9968V24.3358C27.9968 22.5626 27.9648 20.2852 25.5272 20.2852C23.0576 20.2852 22.6773 22.2144 22.6773 24.2077V31.7686H17.9343V16.4867H22.4892V18.5761H22.5533C23.1857 17.3753 24.7347 16.1065 27.0482 16.1065C31.8593 16.1065 32.7439 19.2725 32.7439 23.3872V31.7686Z" fill="#2091F9"/>
</g>
</svg>
